<svg width="1200" height="760" viewBox="0 0 1200 760" fill="none" xmlns="http://www.w3.org/2000/svg">
  <rect width="1200" height="760" fill="#02040A"/>
  <rect width="1200" height="760" fill="url(#g)"/>
  <circle cx="960" cy="170" r="260" fill="#34D399" opacity=".16"/>
  <circle cx="420" cy="430" r="320" fill="#3BA7FF" opacity=".12"/>
  <path d="M120 572c170-172 324-258 462-258s300 86 486 258" stroke="white" stroke-opacity=".18" stroke-width="2"/>
  <path d="M120 612c170-172 324-258 462-258s300 86 486 258" stroke="#3BA7FF" stroke-opacity=".26" stroke-width="3"/>
  <rect x="130" y="132" width="310" height="500" rx="46" fill="#07111F" stroke="white" stroke-opacity=".14" stroke-width="2"/>
  <circle cx="285" cy="290" r="82" fill="#3BA7FF" fill-opacity=".22"/>
  <path d="M285 228v124M223 290h124" stroke="white" stroke-opacity=".4" stroke-width="18" stroke-linecap="round"/>
  <rect x="172" y="430" width="226" height="28" rx="14" fill="white" fill-opacity=".13"/>
  <rect x="172" y="486" width="176" height="20" rx="10" fill="white" fill-opacity=".08"/>
  <text x="560" y="278" fill="#F5F7FA" font-family="Arial, sans-serif" font-size="72" font-weight="800" letter-spacing="3">JAMAAH</text>
  <text x="560" y="356" fill="#F5F7FA" font-family="Arial, sans-serif" font-size="72" font-weight="800" letter-spacing="3">GUIDE</text>
  <text x="564" y="450" fill="#9CA3AF" font-family="Arial, sans-serif" font-size="28" letter-spacing="4">TRAVEL COMPANION</text>
  <defs>
    <linearGradient id="g" x1="0" x2="1200" y1="0" y2="760">
      <stop stop-color="#061B16"/>
      <stop offset=".48" stop-color="#02040A"/>
      <stop offset="1" stop-color="#07111F"/>
    </linearGradient>
  </defs>
</svg>
