<svg width="1200" height="760" viewBox="0 0 1200 760" fill="none" xmlns="http://www.w3.org/2000/svg">
  <rect width="1200" height="760" fill="#02040A"/>
  <rect width="1200" height="760" fill="url(#g)"/>
  <circle cx="920" cy="120" r="310" fill="#3BA7FF" opacity=".18"/>
  <circle cx="250" cy="650" r="260" fill="#F5F7FA" opacity=".08"/>
  <rect x="122" y="112" width="336" height="560" rx="48" fill="#07111F" stroke="white" stroke-opacity=".14" stroke-width="2"/>
  <rect x="150" y="162" width="280" height="96" rx="24" fill="white" fill-opacity=".08"/>
  <rect x="150" y="290" width="132" height="132" rx="28" fill="#3BA7FF" fill-opacity=".28"/>
  <rect x="298" y="290" width="132" height="132" rx="28" fill="white" fill-opacity=".08"/>
  <rect x="150" y="452" width="280" height="34" rx="17" fill="white" fill-opacity=".14"/>
  <rect x="150" y="510" width="224" height="22" rx="11" fill="white" fill-opacity=".09"/>
  <rect x="150" y="552" width="250" height="22" rx="11" fill="white" fill-opacity=".09"/>
  <path d="M642 280h332M642 356h240M642 432h292" stroke="white" stroke-opacity=".22" stroke-width="24" stroke-linecap="round"/>
  <text x="638" y="205" fill="#F5F7FA" font-family="Arial, sans-serif" font-size="78" font-weight="800" letter-spacing="6">MOBSEN</text>
  <text x="642" y="520" fill="#9CA3AF" font-family="Arial, sans-serif" font-size="28" letter-spacing="4">EMPLOYEE OPERATIONS</text>
  <defs>
    <linearGradient id="g" x1="0" x2="1200" y1="0" y2="760">
      <stop stop-color="#07111F"/>
      <stop offset=".52" stop-color="#02040A"/>
      <stop offset="1" stop-color="#0A2440"/>
    </linearGradient>
  </defs>
</svg>
